<mxfile host="Electron" modified="2025-05-10T09:33:16.842Z" agent="Mozilla/5.0 (Macintosh; Intel Mac OS X 10_15_7) AppleWebKit/537.36 (KHTML, like Gecko) draw.io/22.1.2 Chrome/114.0.5735.289 Electron/25.9.4 Safari/537.36" etag="9pcv12s9_1xCNIAjx7ut" version="22.1.2" type="device">
  <diagram id="prtHgNgQTEPvFCAcTncT" name="Page-1">
    <mxGraphModel dx="1179" dy="859" grid="1" gridSize="10" guides="1" tooltips="1" connect="1" arrows="1" fold="1" page="1" pageScale="1" pageWidth="827" pageHeight="1169" math="0" shadow="0">
      <root>
        <mxCell id="0" />
        <mxCell id="1" parent="0" />
        <mxCell id="dNxyNK7c78bLwvsdeMH5-11" value="Restaurant-Management-System" style="swimlane;html=1;startSize=20;horizontal=1;containerType=tree;glass=0;" parent="1" vertex="1">
          <mxGeometry x="10" y="80" width="910" height="420" as="geometry" />
        </mxCell>
        <mxCell id="DWaTF968mt7kBWjoeDm0-2" style="edgeStyle=orthogonalEdgeStyle;rounded=0;orthogonalLoop=1;jettySize=auto;html=1;exitX=0.5;exitY=1;exitDx=0;exitDy=0;" edge="1" parent="dNxyNK7c78bLwvsdeMH5-11" source="dNxyNK7c78bLwvsdeMH5-12" target="DWaTF968mt7kBWjoeDm0-1">
          <mxGeometry relative="1" as="geometry" />
        </mxCell>
        <UserObject label="Boss&lt;br&gt;&lt;font color=&quot;#808080&quot;&gt;&lt;i&gt;总部管理层&lt;/i&gt;&lt;/font&gt;" name="Tessa Miller" position="CFO" location="Office 1" email="me@example.com" placeholders="1" id="dNxyNK7c78bLwvsdeMH5-12">
          <mxCell style="label;image=https://cdn3.iconfinder.com/data/icons/user-avatars-1/512/users-3-128.png;whiteSpace=wrap;html=1;rounded=0;glass=0;treeMoving=1;treeFolding=1;" parent="dNxyNK7c78bLwvsdeMH5-11" vertex="1">
            <mxGeometry x="355" y="45" width="180" height="70" as="geometry" />
          </mxCell>
        </UserObject>
        <mxCell id="dNxyNK7c78bLwvsdeMH5-13" value="" style="endArrow=blockThin;endFill=1;fontSize=11;edgeStyle=elbowEdgeStyle;elbow=vertical;rounded=0;" parent="dNxyNK7c78bLwvsdeMH5-11" source="dNxyNK7c78bLwvsdeMH5-12" target="dNxyNK7c78bLwvsdeMH5-14" edge="1">
          <mxGeometry relative="1" as="geometry" />
        </mxCell>
        <UserObject label="张三&lt;br&gt;&lt;i style=&quot;color: gray&quot;&gt;技术部&lt;/i&gt;" name="Edward Morrison" position="Brand Manager" location="Office 2" email="me@example.com" placeholders="1" id="dNxyNK7c78bLwvsdeMH5-14">
          <mxCell style="label;image=https://cdn3.iconfinder.com/data/icons/user-avatars-1/512/users-10-3-128.png;whiteSpace=wrap;html=1;rounded=0;glass=0;treeFolding=1;treeMoving=1;" parent="dNxyNK7c78bLwvsdeMH5-11" vertex="1">
            <mxGeometry x="25" y="175" width="180" height="80" as="geometry" />
          </mxCell>
        </UserObject>
        <mxCell id="dNxyNK7c78bLwvsdeMH5-15" value="" style="endArrow=blockThin;endFill=1;fontSize=11;edgeStyle=elbowEdgeStyle;elbow=vertical;rounded=0;" parent="dNxyNK7c78bLwvsdeMH5-11" source="dNxyNK7c78bLwvsdeMH5-12" target="dNxyNK7c78bLwvsdeMH5-16" edge="1">
          <mxGeometry relative="1" as="geometry" />
        </mxCell>
        <UserObject label="李四&lt;br&gt;&lt;font color=&quot;#808080&quot;&gt;&lt;i&gt;门店运营部&lt;/i&gt;&lt;/font&gt;" name="Evan Valet" position="HR Director" location="Office 4" email="me@example.com" placeholders="1" id="dNxyNK7c78bLwvsdeMH5-16">
          <mxCell style="label;image=https://cdn3.iconfinder.com/data/icons/user-avatars-1/512/users-9-2-128.png;whiteSpace=wrap;html=1;rounded=0;glass=0;treeFolding=1;treeMoving=1;" parent="dNxyNK7c78bLwvsdeMH5-11" vertex="1">
            <mxGeometry x="245" y="175" width="180" height="80" as="geometry" />
          </mxCell>
        </UserObject>
        <mxCell id="dNxyNK7c78bLwvsdeMH5-17" value="" style="endArrow=blockThin;endFill=1;fontSize=11;edgeStyle=elbowEdgeStyle;elbow=vertical;rounded=0;" parent="dNxyNK7c78bLwvsdeMH5-11" source="dNxyNK7c78bLwvsdeMH5-12" target="dNxyNK7c78bLwvsdeMH5-18" edge="1">
          <mxGeometry relative="1" as="geometry" />
        </mxCell>
        <UserObject label="王五&lt;br&gt;&lt;font color=&quot;#808080&quot;&gt;&lt;i&gt;市场部&lt;/i&gt;&lt;/font&gt;" name="Alison Donovan" position="System Admin" location="Office 3" email="me@example.com" placeholders="1" id="dNxyNK7c78bLwvsdeMH5-18">
          <mxCell style="label;image=https://cdn3.iconfinder.com/data/icons/user-avatars-1/512/users-2-128.png;whiteSpace=wrap;html=1;rounded=0;glass=0;" parent="dNxyNK7c78bLwvsdeMH5-11" vertex="1">
            <mxGeometry x="475" y="175" width="180" height="80" as="geometry" />
          </mxCell>
        </UserObject>
        <UserObject label="陈二&lt;br&gt;&lt;font color=&quot;#808080&quot;&gt;&lt;i&gt;客服部&lt;/i&gt;&lt;/font&gt;" name="Alison Donovan" position="System Admin" location="Office 3" email="me@example.com" placeholders="1" id="DWaTF968mt7kBWjoeDm0-1">
          <mxCell style="label;image=https://cdn3.iconfinder.com/data/icons/user-avatars-1/512/users-2-128.png;whiteSpace=wrap;html=1;rounded=0;glass=0;" vertex="1" parent="dNxyNK7c78bLwvsdeMH5-11">
            <mxGeometry x="705" y="175" width="180" height="80" as="geometry" />
          </mxCell>
        </UserObject>
        <mxCell id="DWaTF968mt7kBWjoeDm0-12" value="" style="endArrow=blockThin;endFill=1;fontSize=11;elbow=vertical;rounded=0;entryX=0.5;entryY=0;entryDx=0;entryDy=0;edgeStyle=orthogonalEdgeStyle;" edge="1" target="DWaTF968mt7kBWjoeDm0-13" source="dNxyNK7c78bLwvsdeMH5-14" parent="dNxyNK7c78bLwvsdeMH5-11">
          <mxGeometry relative="1" as="geometry">
            <mxPoint x="455" y="195" as="sourcePoint" />
          </mxGeometry>
        </mxCell>
        <UserObject label="&lt;font color=&quot;#808080&quot;&gt;&lt;i&gt;系统开发部&lt;/i&gt;&lt;/font&gt;" name="Edward Morrison" position="Brand Manager" location="Office 2" email="me@example.com" placeholders="1" id="DWaTF968mt7kBWjoeDm0-13">
          <mxCell style="label;image=https://cdn3.iconfinder.com/data/icons/user-avatars-1/512/users-10-3-128.png;whiteSpace=wrap;html=1;rounded=0;glass=0;treeFolding=1;treeMoving=1;" vertex="1" parent="dNxyNK7c78bLwvsdeMH5-11">
            <mxGeometry x="25" y="295" width="70" height="80" as="geometry" />
          </mxCell>
        </UserObject>
        <mxCell id="DWaTF968mt7kBWjoeDm0-15" value="" style="endArrow=blockThin;endFill=1;fontSize=11;elbow=vertical;rounded=0;entryX=0.5;entryY=0;entryDx=0;entryDy=0;exitX=0.5;exitY=1;exitDx=0;exitDy=0;edgeStyle=orthogonalEdgeStyle;" edge="1" target="DWaTF968mt7kBWjoeDm0-16" source="dNxyNK7c78bLwvsdeMH5-14" parent="dNxyNK7c78bLwvsdeMH5-11">
          <mxGeometry relative="1" as="geometry">
            <mxPoint x="455" y="195" as="sourcePoint" />
          </mxGeometry>
        </mxCell>
        <UserObject label="&lt;i style=&quot;color: gray&quot;&gt;运维部&lt;/i&gt;" name="Edward Morrison" position="Brand Manager" location="Office 2" email="me@example.com" placeholders="1" id="DWaTF968mt7kBWjoeDm0-16">
          <mxCell style="label;image=https://cdn3.iconfinder.com/data/icons/user-avatars-1/512/users-10-3-128.png;whiteSpace=wrap;html=1;rounded=0;glass=0;treeFolding=1;treeMoving=1;" vertex="1" parent="dNxyNK7c78bLwvsdeMH5-11">
            <mxGeometry x="135" y="295" width="70" height="80" as="geometry" />
          </mxCell>
        </UserObject>
        <mxCell id="DWaTF968mt7kBWjoeDm0-19" value="" style="endArrow=blockThin;endFill=1;fontSize=11;elbow=vertical;rounded=0;edgeStyle=orthogonalEdgeStyle;" edge="1" target="DWaTF968mt7kBWjoeDm0-20" source="dNxyNK7c78bLwvsdeMH5-16" parent="dNxyNK7c78bLwvsdeMH5-11">
          <mxGeometry relative="1" as="geometry">
            <mxPoint x="455" y="195" as="sourcePoint" />
          </mxGeometry>
        </mxCell>
        <UserObject label="&lt;font color=&quot;#808080&quot;&gt;&lt;i&gt;前厅服务部&lt;/i&gt;&lt;/font&gt;" name="Evan Valet" position="HR Director" location="Office 4" email="me@example.com" placeholders="1" id="DWaTF968mt7kBWjoeDm0-20">
          <mxCell style="label;image=https://cdn3.iconfinder.com/data/icons/user-avatars-1/512/users-9-2-128.png;whiteSpace=wrap;html=1;rounded=0;glass=0;treeFolding=1;treeMoving=1;" vertex="1" parent="dNxyNK7c78bLwvsdeMH5-11">
            <mxGeometry x="245" y="295" width="70" height="80" as="geometry" />
          </mxCell>
        </UserObject>
        <mxCell id="DWaTF968mt7kBWjoeDm0-21" value="" style="endArrow=blockThin;endFill=1;fontSize=11;edgeStyle=elbowEdgeStyle;elbow=vertical;rounded=0;exitX=0.5;exitY=1;exitDx=0;exitDy=0;" edge="1" target="DWaTF968mt7kBWjoeDm0-22" source="dNxyNK7c78bLwvsdeMH5-16" parent="dNxyNK7c78bLwvsdeMH5-11">
          <mxGeometry relative="1" as="geometry">
            <mxPoint x="365" y="265" as="sourcePoint" />
          </mxGeometry>
        </mxCell>
        <UserObject label="&lt;font color=&quot;#808080&quot;&gt;&lt;i&gt;后厨管理部&lt;/i&gt;&lt;/font&gt;" name="Evan Valet" position="HR Director" location="Office 4" email="me@example.com" placeholders="1" id="DWaTF968mt7kBWjoeDm0-22">
          <mxCell style="label;image=https://cdn3.iconfinder.com/data/icons/user-avatars-1/512/users-9-2-128.png;whiteSpace=wrap;html=1;rounded=0;glass=0;treeFolding=1;treeMoving=1;" vertex="1" parent="dNxyNK7c78bLwvsdeMH5-11">
            <mxGeometry x="355" y="295" width="70" height="80" as="geometry" />
          </mxCell>
        </UserObject>
        <mxCell id="DWaTF968mt7kBWjoeDm0-23" value="" style="endArrow=blockThin;endFill=1;fontSize=11;edgeStyle=elbowEdgeStyle;elbow=vertical;rounded=0;" edge="1" target="DWaTF968mt7kBWjoeDm0-24" source="dNxyNK7c78bLwvsdeMH5-18" parent="dNxyNK7c78bLwvsdeMH5-11">
          <mxGeometry relative="1" as="geometry">
            <mxPoint x="455" y="195" as="sourcePoint" />
          </mxGeometry>
        </mxCell>
        <UserObject label="&lt;font color=&quot;#808080&quot;&gt;&lt;i&gt;用户推广部&lt;/i&gt;&lt;/font&gt;" name="Alison Donovan" position="System Admin" location="Office 3" email="me@example.com" placeholders="1" id="DWaTF968mt7kBWjoeDm0-24">
          <mxCell style="label;image=https://cdn3.iconfinder.com/data/icons/user-avatars-1/512/users-2-128.png;whiteSpace=wrap;html=1;rounded=0;glass=0;" vertex="1" parent="dNxyNK7c78bLwvsdeMH5-11">
            <mxGeometry x="475" y="295" width="70" height="80" as="geometry" />
          </mxCell>
        </UserObject>
        <mxCell id="DWaTF968mt7kBWjoeDm0-25" value="" style="endArrow=blockThin;endFill=1;fontSize=11;edgeStyle=elbowEdgeStyle;elbow=vertical;rounded=0;" edge="1" target="DWaTF968mt7kBWjoeDm0-26" source="dNxyNK7c78bLwvsdeMH5-18" parent="dNxyNK7c78bLwvsdeMH5-11">
          <mxGeometry relative="1" as="geometry">
            <mxPoint x="455" y="195" as="sourcePoint" />
          </mxGeometry>
        </mxCell>
        <UserObject label="&lt;font color=&quot;#808080&quot;&gt;&lt;i&gt;数据分析部&lt;/i&gt;&lt;/font&gt;" name="Alison Donovan" position="System Admin" location="Office 3" email="me@example.com" placeholders="1" id="DWaTF968mt7kBWjoeDm0-26">
          <mxCell style="label;image=https://cdn3.iconfinder.com/data/icons/user-avatars-1/512/users-2-128.png;whiteSpace=wrap;html=1;rounded=0;glass=0;" vertex="1" parent="dNxyNK7c78bLwvsdeMH5-11">
            <mxGeometry x="585" y="295" width="70" height="80" as="geometry" />
          </mxCell>
        </UserObject>
        <mxCell id="DWaTF968mt7kBWjoeDm0-27" style="edgeStyle=orthogonalEdgeStyle;rounded=0;orthogonalLoop=1;jettySize=auto;html=1;exitX=0.5;exitY=1;exitDx=0;exitDy=0;" edge="1" target="DWaTF968mt7kBWjoeDm0-28" source="DWaTF968mt7kBWjoeDm0-1" parent="dNxyNK7c78bLwvsdeMH5-11">
          <mxGeometry relative="1" as="geometry">
            <mxPoint x="455" y="195" as="sourcePoint" />
          </mxGeometry>
        </mxCell>
        <UserObject label="&lt;font color=&quot;#808080&quot;&gt;&lt;i&gt;用户支持组&lt;/i&gt;&lt;/font&gt;" name="Alison Donovan" position="System Admin" location="Office 3" email="me@example.com" placeholders="1" id="DWaTF968mt7kBWjoeDm0-28">
          <mxCell style="label;image=https://cdn3.iconfinder.com/data/icons/user-avatars-1/512/users-2-128.png;whiteSpace=wrap;html=1;rounded=0;glass=0;" vertex="1" parent="dNxyNK7c78bLwvsdeMH5-11">
            <mxGeometry x="705" y="295" width="70" height="80" as="geometry" />
          </mxCell>
        </UserObject>
        <mxCell id="DWaTF968mt7kBWjoeDm0-29" style="edgeStyle=orthogonalEdgeStyle;rounded=0;orthogonalLoop=1;jettySize=auto;html=1;exitX=0.5;exitY=1;exitDx=0;exitDy=0;" edge="1" target="DWaTF968mt7kBWjoeDm0-30" source="DWaTF968mt7kBWjoeDm0-1" parent="dNxyNK7c78bLwvsdeMH5-11">
          <mxGeometry relative="1" as="geometry">
            <mxPoint x="455" y="195" as="sourcePoint" />
          </mxGeometry>
        </mxCell>
        <UserObject label="&lt;font color=&quot;#808080&quot;&gt;&lt;i&gt;支付处理组&lt;/i&gt;&lt;/font&gt;" name="Alison Donovan" position="System Admin" location="Office 3" email="me@example.com" placeholders="1" id="DWaTF968mt7kBWjoeDm0-30">
          <mxCell style="label;image=https://cdn3.iconfinder.com/data/icons/user-avatars-1/512/users-2-128.png;whiteSpace=wrap;html=1;rounded=0;glass=0;" vertex="1" parent="dNxyNK7c78bLwvsdeMH5-11">
            <mxGeometry x="815" y="295" width="70" height="80" as="geometry" />
          </mxCell>
        </UserObject>
      </root>
    </mxGraphModel>
  </diagram>
</mxfile>
